<svg width="1151" height="830" viewBox="0 0 1151 830" fill="none" xmlns="http://www.w3.org/2000/svg">
<path fill-rule="evenodd" clip-rule="evenodd" d="M48.635 1.26399C40.198 1.70199 32.902 2.197 32.422 2.364C31.941 2.531 57.616 17.518 89.477 35.668C121.338 53.818 147.421 68.958 147.44 69.312C147.459 69.666 145.787 69.542 143.724 69.038C129.417 65.538 11.991 38.323 11.856 38.476C11.764 38.582 34.027 49.229 61.331 62.138C135.698 97.297 138.06 98.444 136.904 98.844C136.316 99.048 105.506 93.804 68.438 87.191C31.371 80.578 0.576986 75.183 0.00798584 75.202C-0.561014 75.221 29.349 86.247 66.474 99.705C103.599 113.162 134.601 124.407 135.367 124.694C136.133 124.981 136.583 125.381 136.367 125.584C136.151 125.786 112.349 124.249 83.474 122.168C54.599 120.087 30.877 118.469 30.759 118.574C30.641 118.678 61.691 127.253 99.759 137.628C137.827 148.003 169.402 156.869 169.924 157.33C170.446 157.791 154.696 158.227 134.924 158.298C115.152 158.37 90.424 158.708 79.974 159.048L60.974 159.668L129.474 173.532C167.149 181.158 198.328 187.722 198.76 188.119C199.51 188.807 188.872 190.19 126.474 197.512C111.349 199.287 99.424 200.994 99.974 201.306C100.524 201.617 122.686 205.651 149.223 210.27C175.759 214.889 197.472 218.916 197.473 219.22C197.473 219.524 177.425 225.599 152.922 232.72C128.418 239.841 109.406 245.786 110.672 245.93C111.938 246.074 150.099 242.862 195.474 238.793C240.849 234.723 278.162 231.568 278.391 231.781C278.62 231.994 278.62 232.324 278.391 232.514C278.162 232.705 250.178 246.271 216.204 262.661C182.231 279.051 154.581 292.609 154.761 292.789C154.941 292.969 178.013 289.073 206.031 284.132C234.05 279.192 257.616 275.266 258.401 275.409C259.287 275.57 256.091 279.99 249.952 287.091C241.959 296.337 240.361 298.694 241.572 299.458C242.394 299.977 265.321 308.802 292.521 319.071L341.974 337.741L363.474 373.417C375.299 393.039 385.46 408.929 386.054 408.727C386.648 408.526 392.611 404.503 399.304 399.788C405.998 395.072 411.474 391.824 411.474 392.57C411.474 393.316 409.955 398.93 408.098 405.047C406.241 411.164 404.872 416.168 405.055 416.168C405.239 416.168 416.907 407.342 430.984 396.554C445.061 385.766 456.816 377.176 457.105 377.466C457.395 377.756 456.006 388.667 454.019 401.713C452.033 414.76 450.577 425.605 450.785 425.813C450.994 426.021 460.107 413.586 471.037 398.18C481.967 382.773 491.196 370.168 491.546 370.168C491.896 370.168 494.509 381.813 497.355 396.047L502.527 421.925L489.18 443.297C441.461 519.702 409.222 571.661 408.717 572.978C408.365 573.894 412.442 572.195 418.875 568.744C424.785 565.574 429.79 563.15 429.997 563.358C430.204 563.565 420.457 584.87 408.337 610.701C380.096 670.89 381.052 668.745 383.22 667.039C384.178 666.285 394.161 657.568 405.404 647.668C416.647 637.768 436.675 620.141 449.91 608.497C463.145 596.852 474.113 587.707 474.283 588.173C474.453 588.639 466.251 617.94 456.057 653.285C445.862 688.63 437.683 717.711 437.88 717.908C438.078 718.105 453.653 698.444 472.492 674.217C491.331 649.99 507.055 630.168 507.434 630.168C507.974 630.168 488.099 715.639 471.083 786.493C469.785 791.897 469.072 795.947 469.498 795.493C471.309 793.565 528.289 706.787 533.733 697.668C537.016 692.168 539.812 687.545 539.945 687.394C540.711 686.531 543.503 688.651 543.074 689.769C542.79 690.508 543.285 708.112 544.173 728.89L545.788 766.668L558.775 796.668C565.917 813.168 572.458 827.231 573.309 827.918C577.161 831.03 577.419 830.593 593.223 794.168L605.155 766.668L606.751 729.334C607.629 708.8 608.085 691.318 607.765 690.483C607.234 689.1 608.909 687.221 610.707 687.183C611.11 687.175 612.593 689.305 614.002 691.918C615.411 694.53 618.045 699.143 619.855 702.168C623.46 708.194 680.198 794.16 681.45 795.493C681.876 795.947 681.163 791.897 679.865 786.493C662.849 715.639 642.974 630.168 643.514 630.168C643.893 630.168 659.617 649.99 678.456 674.217C697.295 698.444 712.87 718.105 713.068 717.908C713.265 717.711 705.086 688.63 694.891 653.285C684.697 617.94 676.495 588.639 676.665 588.173C676.835 587.707 687.803 596.852 701.038 608.497C714.273 620.141 734.301 637.768 745.544 647.668C756.787 657.568 766.77 666.285 767.728 667.039C769.896 668.745 770.852 670.89 742.611 610.701C730.491 584.87 720.744 563.565 720.951 563.358C721.158 563.15 726.163 565.574 732.073 568.744C738.506 572.195 742.583 573.894 742.231 572.978C741.726 571.661 709.487 519.702 661.768 443.297L648.421 421.925L653.593 396.047C656.439 381.813 659.052 370.168 659.402 370.168C659.752 370.168 668.981 382.773 679.911 398.18C690.841 413.586 699.954 426.021 700.163 425.813C700.371 425.605 698.915 414.76 696.929 401.713C694.942 388.667 693.553 377.756 693.843 377.466C694.132 377.176 705.887 385.766 719.964 396.554C734.041 407.342 745.709 416.168 745.893 416.168C746.076 416.168 744.707 411.164 742.85 405.047C740.993 398.93 739.474 393.316 739.474 392.57C739.474 391.824 744.95 395.072 751.644 399.788C758.337 404.503 764.3 408.526 764.894 408.727C765.488 408.929 775.649 393.039 787.474 373.417L808.974 337.741C808.974 337.741 831.227 329.34 858.427 319.071C885.627 308.802 908.554 299.977 909.376 299.458C910.587 298.694 908.989 296.337 900.996 287.091C894.857 279.99 891.661 275.57 892.547 275.409C893.332 275.266 916.898 279.192 944.917 284.132C972.935 289.073 996.007 292.969 996.187 292.789C996.367 292.609 968.717 279.051 934.744 262.661C900.77 246.271 872.786 232.705 872.557 232.514C872.328 232.324 872.328 231.994 872.557 231.781C872.786 231.568 910.099 234.723 955.474 238.793C1000.85 242.862 1039.01 246.074 1040.28 245.93C1041.54 245.786 1022.53 239.841 998.026 232.72C973.523 225.599 953.475 219.524 953.475 219.22C953.476 218.916 975.189 214.889 1001.72 210.27C1028.26 205.651 1050.42 201.617 1050.97 201.306C1051.52 200.994 1039.6 199.287 1024.47 197.512C962.076 190.19 951.438 188.807 952.188 188.119C952.62 187.722 983.799 181.158 1021.47 173.532L1089.97 159.668L1070.97 159.048C1060.52 158.708 1035.8 158.37 1016.02 158.298C996.252 158.227 980.502 157.791 981.024 157.33C981.547 156.869 1013.12 148.003 1051.19 137.628C1089.26 127.253 1120.31 118.678 1120.19 118.574C1120.07 118.469 1096.35 120.087 1067.47 122.168C1038.6 124.249 1014.8 125.786 1014.58 125.584C1014.37 125.381 1014.82 124.981 1015.58 124.694C1016.35 124.407 1047.35 113.162 1084.47 99.705C1121.6 86.247 1151.51 75.221 1150.94 75.202C1150.37 75.183 1119.58 80.578 1082.51 87.191C1045.44 93.804 1014.63 99.048 1014.04 98.844C1012.89 98.444 1015.25 97.297 1089.62 62.138C1116.92 49.229 1139.18 38.582 1139.09 38.476C1138.96 38.323 1021.53 65.538 1007.22 69.038C1005.16 69.542 1003.49 69.666 1003.51 69.312C1003.53 68.958 1029.6 53.823 1061.44 35.679C1093.28 17.536 1119.22 2.57999 1119.08 2.44499C1118.95 2.30899 1108.96 1.704 1096.89 1.099L1074.94 0L1017.96 22.004C986.616 34.107 936.449 53.518 906.474 65.14C876.499 76.762 812.308 101.613 763.828 120.363L675.681 154.455L666.614 177.562C661.627 190.27 654.006 209.443 649.679 220.168C645.352 230.893 639.894 244.885 637.549 251.261C633.215 263.046 631.875 265.983 631.214 265.139C629.893 263.454 617.717 246.448 617.152 245.499C616.769 244.856 617.359 239.681 618.462 233.999C619.565 228.317 620.469 222.909 620.471 221.982C620.474 220.199 598.783 200.657 595.122 199.145C592.479 198.053 577.534 194.694 575.474 194.729C573.233 194.768 558.296 198.124 555.826 199.145C552.165 200.657 530.474 220.199 530.477 221.982C530.479 222.909 531.383 228.317 532.486 233.999C533.589 239.681 534.179 244.856 533.796 245.499C533.231 246.448 521.055 263.454 519.734 265.139C519.073 265.983 517.733 263.046 513.399 251.261C511.054 244.885 505.596 230.893 501.269 220.168C496.942 209.443 489.321 190.27 484.334 177.562L475.267 154.455L387.12 120.363C338.64 101.613 274.449 76.762 244.474 65.14C214.499 53.518 164.43 34.145 133.209 22.088C69.177 -2.639 78.687 -0.297008 48.635 1.26399Z" fill="url(#paint0_linear_1680_58)"/>
<defs>
<linearGradient id="paint0_linear_1680_58" x1="576.029" y1="829.111" x2="776.519" y2="52.0126" gradientUnits="userSpaceOnUse">
<stop stop-color="#FFD400"/>
<stop offset="1" stop-color="#7A00FF"/>
</linearGradient>
</defs>
</svg>
