<svg width="308" height="382" viewBox="0 0 308 382" fill="none" xmlns="http://www.w3.org/2000/svg">
<path d="M161.915 70.7067C162.237 70.6967 169.475 54.7327 178 35.2327C186.525 15.7317 193.797 -0.122289 194.16 0.000710898C194.523 0.124711 211.743 24.0757 232.427 53.2257L270.034 106.226L288.767 114.25C303.327 120.486 307.562 122.714 307.78 124.25C308.213 127.312 283.133 349.004 282.267 349.773C281.845 350.147 253.809 357.349 219.964 365.778L158.428 381.103L131.464 360.276C116.634 348.822 104.035 339.088 103.467 338.646C102.899 338.203 88.43 338.78 71.314 339.928C54.198 341.076 39.557 341.77 38.778 341.471C37.668 341.045 0 258.524 0 256.518C0 256.242 9.89501 248.189 21.989 238.621L43.978 221.226L43.989 195.567L44 169.909L76.604 148.627C94.537 136.922 109.377 126.869 109.582 126.286C109.915 125.34 116 37.0937 116 33.2127C116 32.3087 125.65 39.9597 138.665 51.1817C151.131 61.9307 161.594 70.7177 161.915 70.7067Z" fill="url(#paint0_linear_1680_51)"/>
<defs>
<linearGradient id="paint0_linear_1680_51" x1="2.05907e-05" y1="305.449" x2="222.798" y2="11.2846" gradientUnits="userSpaceOnUse">
<stop stop-color="#FFD400"/>
<stop offset="1" stop-color="#7A00FF"/>
</linearGradient>
</defs>
</svg>
