<svg width="407" height="379" viewBox="0 0 407 379" fill="none" xmlns="http://www.w3.org/2000/svg">
<path d="M99.863 71.5266C100.487 70.2986 107.448 53.4226 115.332 34.0246C123.391 14.1936 129.966 -0.688423 130.351 0.0245773C131.13 1.46558 137.078 22.4376 150.281 70.2936C155.289 88.4436 159.696 103.596 160.076 103.965C160.455 104.335 181.691 111.472 207.266 119.825C232.841 128.179 254.349 135.332 255.062 135.72C256.171 136.323 264.081 152.771 276.553 180.408L279.764 187.522L288.765 190.554C326.725 203.341 404.989 230.121 405.932 230.646C406.74 231.095 403.977 239.763 396.932 258.875L386.766 286.456L365.766 305.285C354.216 315.641 343.121 325.667 341.111 327.564L337.455 331.015L302.608 328.405C283.443 326.969 265.738 325.796 263.264 325.799C259.508 325.803 249.361 330.116 201.766 351.933C170.416 366.304 144.29 378.076 143.709 378.094C143.128 378.113 110.555 365.79 71.326 350.711L0 323.294L0.639038 272.294C0.991038 244.244 1.55805 211.347 1.89905 199.189L2.52002 177.083L13.489 164.189C19.521 157.097 24.856 150.394 25.344 149.294C25.832 148.194 28.742 136.494 31.812 123.294C34.881 110.094 42.157 79.2686 47.98 54.7936C53.802 30.3186 58.776 9.28159 59.033 8.04359C59.289 6.80559 59.7839 5.80159 60.1329 5.81059C60.4809 5.81959 69.3069 21.1126 79.7469 39.7936C96.9489 70.5776 98.834 73.5506 99.863 71.5266Z" fill="url(#paint0_linear_1680_54)"/>
<defs>
<linearGradient id="paint0_linear_1680_54" x1="390.73" y1="378.094" x2="15.3378" y2="1.8646e-05" gradientUnits="userSpaceOnUse">
<stop stop-color="#FFD400"/>
<stop offset="1" stop-color="#7A00FF"/>
</linearGradient>
</defs>
</svg>
